<svg id="eAQXPkuSfF41" xmlns="http://www.w3.org/2000/svg" xmlns:xlink="http://www.w3.org/1999/xlink" viewBox="0 0 300 300" shape-rendering="geometricPrecision" text-rendering="geometricPrecision" project-id="bc315697e7e84220b90ef52ad376b57b" export-id="8450e11a5e2d47dfaaffd9a2d002cf13" cached="false"><g><g transform="matrix(1.210185 0.240445-.212091 1.067476 50.819396 81.468261)"><path d="M13,19.73h74.37c1.656854,0,3,1.343146,3,3v45.75c-.005338,1.863883-1.506237,3.378144-3.37,3.4h-74c-1.883291,0-3.41-1.526709-3.41-3.41v-45.33c0-1.883291,1.526709-3.41,3.41-3.41Z" fill="none" stroke="#000" stroke-width="4" stroke-linecap="round" stroke-linejoin="round"/><line x1="9.63" y1="63.23" x2="90.37" y2="63.23" fill="none" stroke="#000" stroke-width="4" stroke-linecap="round" stroke-linejoin="round"/><line x1="20.8" y1="88.27" x2="79.2" y2="88.27" fill="none" stroke="#000" stroke-width="4" stroke-linecap="round" stroke-linejoin="round"/><line x1="9.63" y1="26.98" x2="90.37" y2="26.98" fill="none" stroke="#000" stroke-width="4" stroke-linecap="round" stroke-linejoin="round"/><rect width="16.89" height="16.38" rx="0" ry="0" transform="translate(41.55 71.88)" fill="none" stroke="#000" stroke-width="4" stroke-linecap="round" stroke-linejoin="round"/></g><g transform="matrix(1.430838 0.284285-.256759 1.292297 19.496884 160.517515)"><rect width="29.21" height="33.73" rx="14.61" ry="14.61" transform="translate(35.39 18.42)" fill="none" stroke="#052453" stroke-width="4" stroke-linecap="round" stroke-linejoin="round"/><path d="M72.25,81.58v-2.25C72.211571,67.057617,62.272383,57.118429,50,57.08v0c-12.272383.038429-22.211571,9.977617-22.25,22.25v2.25Z" fill="none" stroke="#052453" stroke-width="4" stroke-linecap="round" stroke-linejoin="round"/></g><g transform="matrix(-1.39485-.298178 0.263412-1.232217 283.565462 131.214971)"><rect width="29.21" height="33.73" rx="14.61" ry="14.61" transform="translate(35.39 18.42)" fill="none" stroke="#052453" stroke-width="4" stroke-linecap="round" stroke-linejoin="round"/><path d="M72.25,81.58v-2.25C72.211571,67.057617,62.272383,57.118429,50,57.08v0c-12.272383.038429-22.211571,9.977617-22.25,22.25v2.25Z" fill="none" stroke="#052453" stroke-width="4" stroke-linecap="round" stroke-linejoin="round"/></g><g transform="matrix(-1.148846-.228484 0.18848-.947704 258.092814 197.820937)"><path d="M13,19.73h74.37c1.656854,0,3,1.343146,3,3v45.75c-.005338,1.863883-1.506237,3.378144-3.37,3.4h-74c-1.883291,0-3.41-1.526709-3.41-3.41v-45.33c0-1.883291,1.526709-3.41,3.41-3.41Z" fill="none" stroke="#000" stroke-width="4" stroke-linecap="round" stroke-linejoin="round"/><line x1="9.63" y1="63.23" x2="90.37" y2="63.23" fill="none" stroke="#000" stroke-width="4" stroke-linecap="round" stroke-linejoin="round"/><line x1="20.8" y1="88.27" x2="79.2" y2="88.27" fill="none" stroke="#000" stroke-width="4" stroke-linecap="round" stroke-linejoin="round"/><line x1="9.63" y1="26.98" x2="90.37" y2="26.98" fill="none" stroke="#000" stroke-width="4" stroke-linecap="round" stroke-linejoin="round"/><rect width="16.89" height="16.38" rx="0" ry="0" transform="translate(41.55 71.88)" fill="none" stroke="#000" stroke-width="4" stroke-linecap="round" stroke-linejoin="round"/></g></g></svg>
