<svg id="ez0GrtkXdoN1" xmlns="http://www.w3.org/2000/svg" xmlns:xlink="http://www.w3.org/1999/xlink" viewBox="0 0 300 300" shape-rendering="geometricPrecision" text-rendering="geometricPrecision" project-id="bc315697e7e84220b90ef52ad376b57b" export-id="dfa1539674334f31a88358b6b956a517" cached="false">
  <!-- Background color -->
  <rect width="300" height="300" fill="#272626"/>
  <g>
    <g transform="matrix(2.296165 0 0 1.75944 35.237673-21.385601)">
      <path d="M13,19.73h74.37c1.656854,0,3,1.343146,3,3v45.75c-.005338,1.863883-1.506237,3.378144-3.37,3.4h-74c-1.883291,0-3.41-1.526709-3.41-3.41v-45.33c0-1.883291,1.526709-3.41,3.41-3.41Z" fill="none" stroke="#000" stroke-width="4" stroke-linecap="round" stroke-linejoin="round"/>
      <line x1="9.63" y1="63.23" x2="90.37" y2="63.23" fill="none" stroke="#000" stroke-width="4" stroke-linecap="round" stroke-linejoin="round"/>
      <line x1="20.8" y1="88.27" x2="79.2" y2="88.27" fill="none" stroke="#000" stroke-width="4" stroke-linecap="round" stroke-linejoin="round"/>
      <line x1="9.63" y1="26.98" x2="90.37" y2="26.98" fill="none" stroke="#000" stroke-width="4" stroke-linecap="round" stroke-linejoin="round"/>
      <rect width="16.89" height="16.38" rx="0" ry="0" transform="translate(41.55 71.88)" fill="none" stroke="#000" stroke-width="4" stroke-linecap="round" stroke-linejoin="round"/>
    </g>
    <g transform="matrix(2.343835 0 0 2.034014 32.854173 112.533462)">
      <rect width="29.21" height="33.73" rx="14.61" ry="14.61" transform="translate(35.39 18.42)" fill="none" stroke="#052453" stroke-width="4" stroke-linecap="round" stroke-linejoin="round"/>
      <path d="M72.25,81.58v-2.25C72.211571,67.057617,62.272383,57.118429,50,57.08v0c-12.272383.038429-22.211571,9.977617-22.25,22.25v2.25Z" fill="none" stroke="#052453" stroke-width="4" stroke-linecap="round" stroke-linejoin="round"/>
    </g>
  </g>
</svg>