<?xml version="1.0" encoding="UTF-8"?>
<svg version="1.1" xmlns="http://www.w3.org/2000/svg" width="870" height="460">
<path d="M0 0 C287.1 0 574.2 0 870 0 C870 151.8 870 303.6 870 460 C582.9 460 295.8 460 0 460 C0 308.2 0 156.4 0 0 Z " fill="#272626" transform="translate(0,0)"/>
<path d="M0 0 C1.70760498 -0.00856522 1.70760498 -0.00856522 3.44970703 -0.01730347 C4.70479065 -0.01842133 5.95987427 -0.01953918 7.25299072 -0.02069092 C9.22870056 -0.02813828 9.22870056 -0.02813828 11.24432373 -0.03573608 C14.86432691 -0.04887014 18.48431154 -0.05530729 22.10433483 -0.05974674 C24.36611112 -0.06267657 26.62788233 -0.06678127 28.88965607 -0.07125092 C35.96644879 -0.08493009 43.04322991 -0.09459401 50.12003493 -0.09845281 C58.288341 -0.10293116 66.45647952 -0.12046684 74.62473464 -0.1494534 C80.93819577 -0.17107961 87.25160981 -0.18115763 93.56510758 -0.18249393 C97.33576535 -0.18354152 101.10626571 -0.18943924 104.87688446 -0.20731354 C108.42604793 -0.22380999 111.97493597 -0.22594225 115.52412415 -0.21717453 C117.44334924 -0.21603871 119.36256525 -0.229745 121.28173828 -0.243927 C127.94178897 -0.21166519 133.08477758 -0.09256982 138.24615479 4.60528564 C143.6721546 11.6107717 144.00133049 16.17573156 144.01177979 24.89044189 C144.03627197 25.95005127 144.06076416 27.00966064 144.08599854 28.10137939 C144.11143471 34.93523264 143.29841852 39.33278778 139.63677979 45.14044189 C134.64407415 49.88351225 130.88780029 51.39326528 124.0322876 51.36749268 C123.36768902 51.36773375 122.70309044 51.36797482 122.01835251 51.36822319 C119.87539856 51.36673506 117.73279618 51.3515257 115.58990479 51.33575439 C114.2768335 51.33374023 112.96376221 51.33172607 111.61090088 51.32965088 C106.70282501 51.31918168 101.79479891 51.29125914 96.88677979 51.26544189 C85.91427979 51.22419189 74.94177979 51.18294189 63.63677979 51.14044189 C63.63677979 75.56044189 63.63677979 99.98044189 63.63677979 125.14044189 C67.59677979 125.14044189 71.55677979 125.14044189 75.63677979 125.14044189 C75.51302979 123.82044189 75.38927979 122.50044189 75.26177979 121.14044189 C75.26939215 116.30659096 76.7336434 113.72254502 79.64068604 109.96466064 C86.51255953 103.68449446 92.41293033 103.56594403 101.42169189 103.63873291 C102.69733505 103.63332993 103.97297821 103.62792694 105.28727722 103.62236023 C108.77093456 103.6084509 112.25409547 103.61954363 115.73772502 103.63607144 C119.39349759 103.64997411 123.04924285 103.64345583 126.70503235 103.63993835 C132.84406482 103.63723999 138.98290137 103.6506783 145.12188721 103.67388916 C152.20482863 103.70048479 159.28744235 103.70224842 166.37041658 103.6905008 C173.20108895 103.6796951 180.03164355 103.68593268 186.86230659 103.70005608 C189.76124439 103.70579294 192.66009536 103.70575138 195.55903435 103.70099068 C199.61369314 103.69530135 203.66786891 103.71460439 207.72247314 103.73638916 C208.91701111 103.73188751 210.11154907 103.72738586 211.34228516 103.7227478 C218.48618886 103.78640465 224.85059166 104.12172434 230.66021729 108.75372314 C235.92262889 115.36976086 236.63677979 119.34595926 236.63677979 128.14044189 C245.21677979 128.14044189 253.79677979 128.14044189 262.63677979 128.14044189 C262.63677979 116.26044189 262.63677979 104.38044189 262.63677979 92.14044189 C270.88677979 92.14044189 279.13677979 92.14044189 287.63677979 92.14044189 C287.63677979 88.51044189 287.63677979 84.88044189 287.63677979 81.14044189 C289.40911131 75.61493772 293.08676086 72.50635951 297.63677979 69.14044189 C300.21251727 67.85257315 302.06331564 68.00581037 304.94857788 67.99327087 C306.07567673 67.98611557 307.20277557 67.97896027 308.36402893 67.97158813 C309.60661972 67.96889923 310.84921051 67.96621033 312.12945557 67.96343994 C313.4336293 67.95686874 314.73780304 67.95029755 316.08149719 67.94352722 C320.41501634 67.92247257 324.74853589 67.91212065 329.08209229 67.90216064 C330.57459405 67.89811302 332.06709563 67.8939961 333.55959702 67.88981056 C340.57445407 67.87075247 347.58930058 67.85652513 354.60417855 67.84819859 C362.69497468 67.83843615 370.7854965 67.81214544 378.87619603 67.7716977 C385.13278752 67.74149597 391.3893006 67.72672572 397.64596355 67.72341758 C401.38097286 67.72107085 405.11568934 67.71216074 408.85062027 67.68695641 C413.0231666 67.65925539 417.19510426 67.66351917 421.36773682 67.67047119 C422.59818222 67.65766113 423.82862762 67.64485107 425.09635925 67.63165283 C432.0911462 67.67410892 436.70623105 68.33767202 442.63677979 72.14044189 C448.68952828 78.50358775 447.9153895 84.99018182 448.01177979 93.32794189 C448.0491626 94.53514893 448.08654541 95.74235596 448.12506104 96.98614502 C448.1870349 103.28337817 447.95117536 108.12204333 444.49859619 113.4854126 C437.48961592 119.71592365 430.37731259 119.71719187 421.43121338 119.65802002 C420.1229509 119.6650293 418.81468842 119.67203857 417.46678162 119.67926025 C413.89863176 119.69740342 410.33094758 119.69046485 406.7627902 119.67774391 C403.01932801 119.66757343 399.27590405 119.67702038 395.53244019 119.68328857 C389.24976484 119.69055146 382.96727803 119.68101127 376.68463135 119.66192627 C369.42945888 119.64014101 362.1747358 119.64722608 354.91957414 119.66923189 C348.67814274 119.68740218 342.43684634 119.68993688 336.19539702 119.67947721 C332.47288562 119.6732536 328.7505853 119.6723756 325.02808762 119.68562317 C320.87964123 119.69935753 316.73196632 119.68030565 312.58355713 119.65802002 C311.35534744 119.66611694 310.12713776 119.67421387 308.86170959 119.68255615 C302.49855759 119.61918688 298.43244357 119.50115202 293.63677979 115.14044189 C287.39144155 108.37465881 287.63677979 104.82367258 287.63677979 95.14044189 C280.70677979 95.14044189 273.77677979 95.14044189 266.63677979 95.14044189 C266.63677979 118.24044189 266.63677979 141.34044189 266.63677979 165.14044189 C273.56677979 165.14044189 280.49677979 165.14044189 287.63677979 165.14044189 C287.53365479 163.32544189 287.43052979 161.51044189 287.32427979 159.64044189 C287.33652317 154.44924736 288.04209115 151.18481232 290.85943604 146.85919189 C297.51599053 140.42208425 303.92352945 140.56010984 312.78887939 140.60699463 C314.10353683 140.59837906 315.41819427 140.58976349 316.77268982 140.58088684 C320.36374 140.55846171 323.95434802 140.56131625 327.54544139 140.57020831 C330.54983056 140.57533328 333.55413775 140.56801342 336.55851847 140.56073624 C343.64937633 140.54375896 350.74001888 140.54728088 357.83087158 140.56402588 C365.13206209 140.58094528 372.43265463 140.56511076 379.73377985 140.532803 C386.01599215 140.50606309 392.2980188 140.4988429 398.58028227 140.50731808 C402.32640678 140.51223455 406.07217165 140.51010176 409.81825066 140.48953056 C413.99763902 140.46767671 418.17590188 140.48662147 422.35528564 140.50933838 C423.58722656 140.49764618 424.81916748 140.48595398 426.08843994 140.47390747 C434.87919131 140.57104092 439.87717278 142.42842486 446.10552979 148.57794189 C448.56704518 154.3047328 448.21253272 159.97920344 448.13677979 166.14044189 C448.15224854 167.39856689 448.16771729 168.65669189 448.18365479 169.95294189 C448.14940353 178.03623814 447.62688282 181.94085845 442.07427979 187.78497314 C437.31790896 191.64952444 434.16872086 192.25970894 428.16040039 192.29434204 C426.49087059 192.30724274 426.49087059 192.30724274 424.78761292 192.32040405 C422.96256477 192.32679398 422.96256477 192.32679398 421.10064697 192.33331299 C419.81568832 192.34149048 418.53072968 192.34966797 417.20683289 192.35809326 C412.94912803 192.3842527 408.69141363 192.3996142 404.43365479 192.41387939 C402.96529383 192.41924146 401.49693293 192.42461897 400.02857208 192.43001175 C393.91892726 192.45163101 387.80928502 192.47036636 381.69961166 192.48163414 C372.95698627 192.49786658 364.21480571 192.53103761 355.47234797 192.58803499 C349.31762848 192.62678749 343.1630277 192.64627304 337.00818944 192.6515547 C333.33572938 192.65520077 329.66374443 192.66714173 325.99141693 192.69965744 C321.89084084 192.73544613 317.79121639 192.73135384 313.69049072 192.72393799 C312.48188889 192.74034332 311.27328705 192.75674866 310.02806091 192.77365112 C302.99670821 192.72162745 297.9744658 191.94973749 292.63677979 187.14044189 C286.95809394 181.02677251 287.63677979 177.01019537 287.63677979 168.14044189 C279.71677979 168.14044189 271.79677979 168.14044189 263.63677979 168.14044189 C263.63677979 155.93044189 263.63677979 143.72044189 263.63677979 131.14044189 C254.39677979 131.14044189 245.15677979 131.14044189 235.63677979 131.14044189 C235.63677979 134.77044189 235.63677979 138.40044189 235.63677979 142.14044189 C233.2046438 148.53605875 230.65098639 152.31146556 224.25894165 155.22384644 C218.86803228 156.58802706 213.59741579 156.43518613 208.05718994 156.43096924 C206.1585746 156.44104507 206.1585746 156.44104507 204.22160339 156.45132446 C200.76076862 156.46893804 197.30003285 156.47367784 193.83915758 156.47495604 C191.67382188 156.47638072 189.5085111 156.4806563 187.34318161 156.48595047 C179.78022421 156.50443473 172.21733715 156.51262302 164.65435791 156.51104736 C157.61855459 156.50984609 150.5830581 156.53094948 143.54733241 156.56253469 C137.49446796 156.58873363 131.44170353 156.59941316 125.38878286 156.59813654 C121.77904353 156.59762801 118.16957711 156.60325071 114.55989456 156.62449265 C110.53143769 156.64755354 106.50366359 156.63833217 102.47515869 156.62628174 C101.28840042 156.63752075 100.10164215 156.64875977 98.87892151 156.66033936 C91.98927644 156.60801445 87.49205088 155.85371648 81.63677979 152.14044189 C74.44998756 144.76452356 75.63677979 138.86904941 75.63677979 128.14044189 C66.39677979 128.14044189 57.15677979 128.14044189 47.63677979 128.14044189 C47.63677979 132.10044189 47.63677979 136.06044189 47.63677979 140.14044189 C45.19202803 145.93540901 42.02864121 149.54367532 36.32404041 152.22919655 C33.40852686 153.21784206 31.1505237 153.39712283 28.07810974 153.40786743 C26.41913918 153.42066238 26.41913918 153.42066238 24.72665405 153.43371582 C23.52290131 153.43280945 22.31914856 153.43190308 21.07891846 153.43096924 C19.80356735 153.43768646 18.52821625 153.44440369 17.21421814 153.45132446 C13.72233362 153.46896163 10.23054718 153.47367891 6.73862243 153.47495604 C4.55436359 153.47637965 2.37012952 153.48065324 0.18587685 153.48595047 C-7.44191439 153.50444416 -15.06963582 153.51262203 -22.69744873 153.51104736 C-29.79514622 153.50984658 -36.89253932 153.53093806 -43.99015981 153.56253469 C-50.09395896 153.58873372 -56.19765893 153.59941313 -62.30151385 153.59813654 C-65.94256625 153.59762791 -69.58334812 153.6032557 -73.22434425 153.62449265 C-77.28883098 153.64755314 -81.35264097 153.6383321 -85.41717529 153.62628174 C-86.61485535 153.63752075 -87.8125354 153.64875977 -89.04650879 153.66033936 C-96.60529507 153.60344038 -102.57771181 152.87772726 -108.20306396 147.32403564 C-108.56529053 146.74782471 -108.92751709 146.17161377 -109.30072021 145.57794189 C-109.68099365 144.99915283 -110.06126709 144.42036377 -110.45306396 143.82403564 C-113.4252346 138.32615777 -112.36322021 135.42789383 -112.36322021 128.14044189 C-121.27322021 128.14044189 -130.18322021 128.14044189 -139.36322021 128.14044189 C-139.36322021 127.48044189 -139.36322021 126.82044189 -139.36322021 126.14044189 C-130.45322021 126.14044189 -121.54322021 126.14044189 -112.36322021 126.14044189 C-112.36322021 122.18044189 -112.36322021 118.22044189 -112.36322021 114.14044189 C-109.6961441 107.8184837 -105.6904788 103.77796358 -99.36322021 101.14044189 C-96.81626511 100.88317299 -96.81626511 100.88317299 -93.88684082 100.87301636 C-92.77382095 100.86448639 -91.66080109 100.85595642 -90.51405334 100.84716797 C-88.6890052 100.84852753 -88.6890052 100.84852753 -86.8270874 100.84991455 C-84.89964943 100.83983871 -84.89964943 100.83983871 -82.93327332 100.82955933 C-79.41033905 100.81189892 -75.88750196 100.80720384 -72.3645277 100.80592775 C-70.16134572 100.8045052 -67.95818837 100.80023356 -65.75501251 100.79493332 C-58.06238744 100.77643036 -50.36983165 100.76826272 -42.67718506 100.76983643 C-35.51759338 100.77103674 -28.3583037 100.74995696 -21.1987884 100.7183491 C-15.04405453 100.69214998 -8.88941904 100.6814707 -2.73462987 100.68274724 C0.93773562 100.68325597 4.60983291 100.67762319 8.28214264 100.65639114 C12.38265926 100.63333105 16.48250505 100.64255177 20.58306885 100.65460205 C21.79167068 100.64336304 23.00027252 100.63212402 24.24549866 100.62054443 C31.66567475 100.6759102 37.43202914 101.31984568 43.1517067 106.51696205 C48.35841548 112.2535274 48.8907607 117.77499522 48.63677979 125.14044189 C52.26677979 125.14044189 55.89677979 125.14044189 59.63677979 125.14044189 C59.63677979 100.72044189 59.63677979 76.30044189 59.63677979 51.14044189 C38.88937749 51.29855837 38.88937749 51.29855837 18.14239502 51.50079346 C15.53506119 51.51247952 12.92772004 51.52267154 10.32037354 51.53106689 C9.65030777 51.54152039 8.980242 51.55197388 8.28987122 51.56274414 C-5.43586281 51.76599898 -5.43586281 51.76599898 -11.36322021 47.14044189 C-17.43146344 40.74418552 -17.70361601 34.73573456 -17.67572021 26.32794189 C-17.6918335 25.36823486 -17.70794678 24.40852783 -17.72454834 23.41973877 C-17.72921553 16.58230086 -17.22866084 10.50366507 -12.60931396 5.08184814 C-11.71406006 4.39928955 -11.71406006 4.39928955 -10.80072021 3.70294189 C-10.20130615 3.22985596 -9.60189209 2.75677002 -8.98431396 2.26934814 C-5.84534901 0.08341834 -3.79788294 0.01137392 0 0 Z " fill="#D8D8D8" transform="translate(368.36322021484375,173.85955810546875)"/>
<path d="M0 0 C1.96217468 -0.00810448 1.96217468 -0.00810448 3.96398926 -0.01637268 C7.53634808 -0.03028314 11.1082229 -0.01918969 14.68055463 -0.00266147 C18.42668321 0.01123422 22.17278497 0.00472393 25.91893005 0.00120544 C32.2075883 -0.00149279 38.49605525 0.01194662 44.78466797 0.03515625 C52.04714646 0.06177523 59.30930545 0.06350803 66.57181603 0.05176789 C73.5701502 0.04097638 80.56836921 0.04718717 87.56669426 0.06132317 C90.53985262 0.06706993 93.51292634 0.06701067 96.48608589 0.06225777 C100.63933737 0.05658475 104.79211452 0.07583658 108.9453125 0.09765625 C110.17509323 0.0931546 111.40487396 0.08865295 112.67192078 0.08401489 C119.48283572 0.14350085 124.58404703 0.37291135 129.77124023 5.25561523 C130.24948242 5.85245117 130.72772461 6.44928711 131.22045898 7.06420898 C131.7115918 7.66362305 132.20272461 8.26303711 132.70874023 8.88061523 C136.13744233 13.51550569 134.96715249 18.93751911 134.90795898 24.50170898 C142.49795898 24.50170898 150.08795898 24.50170898 157.90795898 24.50170898 C157.90795898 49.58170898 157.90795898 74.66170898 157.90795898 100.50170898 C150.31795898 100.50170898 142.72795898 100.50170898 134.90795898 100.50170898 C134.90795898 103.80170898 134.90795898 107.10170898 134.90795898 110.50170898 C132.96470738 117.08717275 129.82515454 120.12550574 124.06161976 123.62171364 C121.3829156 124.71624404 119.28009749 124.75919264 116.3868866 124.76913452 C115.26400742 124.77766449 114.14112823 124.78619446 112.98422241 124.79498291 C111.75660187 124.79407654 110.52898132 124.79317017 109.26416016 124.79223633 C107.96784164 124.79895355 106.67152313 124.80567078 105.33592224 124.81259155 C101.78206453 124.83025154 98.22830316 124.83494697 94.67440581 124.83622313 C92.45247063 124.8376455 90.23055987 124.84191676 88.00863075 124.84721756 C80.25232007 124.86571912 72.49607811 124.87388818 64.73974609 124.87231445 C57.51765162 124.8711136 50.29585626 124.89220434 43.07383746 124.92380178 C36.86731508 124.9499854 30.66089026 124.96068085 24.4543131 124.95940363 C20.75012242 124.95889453 17.0461975 124.96454856 13.342062 124.98575974 C9.20781516 125.00878746 5.07423479 124.99960855 0.93994141 124.98754883 C-0.28160645 124.99878784 -1.5031543 125.01002686 -2.76171875 125.02160645 C-10.39344751 124.9650165 -15.08141045 124.17961907 -20.83422852 118.90405273 C-25.93758359 112.30488669 -25.40654975 106.3849805 -25.52954102 98.31420898 C-25.57530273 97.10700195 -25.62106445 95.89979492 -25.66821289 94.65600586 C-25.7539431 87.83859037 -25.36598413 83.3469843 -20.87744141 78.05908203 C-16.86112236 74.55571827 -13.72665654 73.127176 -8.3815155 73.11402893 C-7.24187851 73.1041243 -6.10224152 73.09421967 -4.92807007 73.08401489 C-3.68691437 73.08851654 -2.44575867 73.09301819 -1.16699219 73.09765625 C0.1473732 73.090793 1.46173859 73.08392975 2.81593323 73.07685852 C6.41530394 73.05893132 10.01443078 73.06009504 13.61383271 73.06580091 C16.62307982 73.0688946 19.63228022 73.06279804 22.64152068 73.05676216 C29.74477737 73.04271888 36.84791379 73.04427545 43.95117188 73.05566406 C51.26700701 73.0671347 58.5824751 73.05308718 65.89826185 73.02626759 C72.18890768 73.00407381 78.47943862 72.99748177 84.7701208 73.003344 C88.52293635 73.0067073 92.27551687 73.0043411 96.02829933 72.98709297 C100.2173427 72.96868019 104.40567783 72.9828486 108.59472656 73 C109.82980957 72.99033203 111.06489258 72.98066406 112.33740234 72.97070312 C120.07424535 73.03697384 125.86557593 73.79619119 131.78295898 79.22045898 C135.61137126 85.28211176 135.31007615 90.42444687 134.90795898 97.50170898 C141.50795898 97.50170898 148.10795898 97.50170898 154.90795898 97.50170898 C154.90795898 74.40170898 154.90795898 51.30170898 154.90795898 27.50170898 C148.30795898 27.50170898 141.70795898 27.50170898 134.90795898 27.50170898 C134.96983398 29.19295898 135.03170898 30.88420898 135.09545898 32.62670898 C135.06629768 38.32045401 134.40761065 41.99614798 130.25561523 46.15795898 C125.71549396 50.22775057 122.63820774 51.62350417 116.45571899 51.64215088 C115.32291 51.64786102 114.19010101 51.65357117 113.02296448 51.65945435 C111.1574015 51.66113113 111.1574015 51.66113113 109.25415039 51.6628418 C107.94501175 51.6678067 106.63587311 51.67277161 105.2870636 51.67788696 C101.69404541 51.69100367 98.10104591 51.69745437 94.50800753 51.70189762 C92.26315211 51.70482924 90.01830179 51.7089342 87.77344894 51.71340179 C80.74952138 51.72707418 73.72560547 51.73674237 66.70166552 51.74060369 C58.59391958 51.74508536 50.48634215 51.7626393 42.37864745 51.79160428 C36.11104125 51.81321828 29.84348247 51.8233078 23.5758394 51.8246448 C19.83261472 51.82569295 16.08954851 51.8316027 12.34636307 51.84946442 C8.17099014 51.86900116 3.99597019 51.86465728 -0.17944336 51.8581543 C-2.03893364 51.87197647 -2.03893364 51.87197647 -3.93598938 51.88607788 C-5.64366234 51.87772415 -5.64366234 51.87772415 -7.38583374 51.86920166 C-8.86638024 51.8714015 -8.86638024 51.8714015 -10.37683678 51.87364578 C-15.17989629 51.21570832 -18.3092027 48.64111496 -21.34204102 45.00170898 C-21.84219727 44.41389648 -22.34235352 43.82608398 -22.85766602 43.22045898 C-26.39946919 38.28883431 -25.39738582 31.60508866 -25.46704102 25.81420898 C-25.50442383 24.65469727 -25.54180664 23.49518555 -25.58032227 22.30053711 C-25.6440935 16.06867013 -25.32580469 11.44059996 -21.85620117 6.17431641 C-15.1545181 -0.17957658 -8.86308097 -0.06979233 0 0 Z " fill="#D8D8D8" transform="translate(69.092041015625,238.498291015625)"/>
<path d="M0 0 C0.82072998 -0.0033284 1.64145996 -0.0066568 2.48706055 -0.01008606 C4.21500084 -0.01512801 5.94295079 -0.01749523 7.67089844 -0.01733398 C10.30419996 -0.01952435 12.93708473 -0.03771952 15.5703125 -0.05664062 C17.25520691 -0.05957441 18.9401033 -0.06155931 20.625 -0.0625 C21.79712036 -0.07327827 21.79712036 -0.07327827 22.99291992 -0.08427429 C27.49073834 -0.06559859 31.07365505 0.46762922 35.3125 2.16796875 C35.3125 4.14796875 35.3125 6.12796875 35.3125 8.16796875 C35.9725 7.83796875 36.6325 7.50796875 37.3125 7.16796875 C43.41647596 6.65930409 46.42019166 7.11093257 51.3125 11.16796875 C52.94273814 14.42844504 52.7798535 16.5459791 52.3125 20.16796875 C48.51549913 26.79971684 42.35667824 30.2188414 35.7890625 33.72265625 C33.20435281 34.92835878 33.20435281 34.92835878 32.3125 37.16796875 C33.6325 37.16796875 34.9525 37.16796875 36.3125 37.16796875 C36.3125 37.82796875 36.3125 38.48796875 36.3125 39.16796875 C32.7905279 39.24801357 29.69268531 39.20802577 26.3125 38.16796875 C26.085625 38.88984375 25.85875 39.61171875 25.625 40.35546875 C23.80855306 44.24785505 21.18975027 47.22934361 17.3125 49.16796875 C16.66036708 51.1926013 16.66036708 51.1926013 16.3125 53.16796875 C15.6525 53.16796875 14.9925 53.16796875 14.3125 53.16796875 C15.46387441 59.96107776 16.89607519 62.04677596 22.3125 66.16796875 C22.3125 67.15796875 22.3125 68.14796875 22.3125 69.16796875 C23.446875 69.14734375 24.58125 69.12671875 25.75 69.10546875 C29.3125 69.16796875 29.3125 69.16796875 30.3125 70.16796875 C30.38508946 72.35436328 30.39623783 74.54297264 30.375 76.73046875 C30.36597656 77.92800781 30.35695313 79.12554687 30.34765625 80.359375 C30.33605469 81.28621094 30.32445312 82.21304688 30.3125 83.16796875 C31.09625 83.10609375 31.88 83.04421875 32.6875 82.98046875 C33.986875 83.07328125 33.986875 83.07328125 35.3125 83.16796875 C37.3125 86.16796875 37.3125 86.16796875 37.3125 89.16796875 C34.76311185 90.44266282 32.98209002 90.28813059 30.12841797 90.28149414 C29.04744843 90.28141861 27.96647888 90.28134308 26.85275269 90.28126526 C25.09646042 90.27352333 25.09646042 90.27352333 23.3046875 90.265625 C22.10893097 90.26421005 20.91317444 90.2627951 19.68118286 90.26133728 C15.84993013 90.25572538 12.01873516 90.24317083 8.1875 90.23046875 C5.59505293 90.22545528 3.00260494 90.22089211 0.41015625 90.21679688 C-5.95574898 90.20575208 -12.32162037 90.18900234 -18.6875 90.16796875 C-19.3125 88.35546875 -19.3125 88.35546875 -19.6875 86.16796875 C-19.0275 85.17796875 -18.3675 84.18796875 -17.6875 83.16796875 C-14.5625 82.98046875 -14.5625 82.98046875 -11.6875 83.16796875 C-11.69910156 82.24113281 -11.71070313 81.31429687 -11.72265625 80.359375 C-11.73167969 79.16183594 -11.74070312 77.96429688 -11.75 76.73046875 C-11.76160156 75.53550781 -11.77320313 74.34054688 -11.78515625 73.109375 C-11.6875 70.16796875 -11.6875 70.16796875 -10.6875 69.16796875 C-8.68791636 69.12716092 -6.68704746 69.12542519 -4.6875 69.16796875 C-4.625625 68.56984375 -4.56375 67.97171875 -4.5 67.35546875 C-3.36467105 64.29881389 -1.47597225 63.70162849 1.3125 62.16796875 C1.8075 61.17796875 1.8075 61.17796875 2.3125 60.16796875 C2.9725 60.16796875 3.6325 60.16796875 4.3125 60.16796875 C4.3125 58.18796875 4.3125 56.20796875 4.3125 54.16796875 C3.3225 53.67296875 3.3225 53.67296875 2.3125 53.16796875 C2.065 52.56984375 1.8175 51.97171875 1.5625 51.35546875 C0.38039734 48.90066121 0.38039734 48.90066121 -2.5625 47.29296875 C-5.6875 45.16796875 -5.6875 45.16796875 -7.5 41.91796875 C-9.34657275 38.96917518 -9.34657275 38.96917518 -11.93359375 38.78515625 C-14.21393565 38.7922712 -16.4230565 38.90668681 -18.6875 39.16796875 C-18.6875 38.50796875 -18.6875 37.84796875 -18.6875 37.16796875 C-17.6975 37.16796875 -16.7075 37.16796875 -15.6875 37.16796875 C-18.45317324 34.2426146 -21.26403948 31.99908459 -24.625 29.79296875 C-28.7997874 26.89466731 -31.98262603 24.49576711 -34.6875 20.16796875 C-35.37109886 15.83850933 -35.2154283 13.97745881 -32.8125 10.29296875 C-30.62422415 8.1046929 -29.69271277 7.23282119 -26.62890625 7.03515625 C-25.45134766 7.03902344 -25.45134766 7.03902344 -24.25 7.04296875 C-23.07630859 7.03910156 -23.07630859 7.03910156 -21.87890625 7.03515625 C-19.6875 7.16796875 -19.6875 7.16796875 -16.6875 8.16796875 C-17.0175 6.51796875 -17.3475 4.86796875 -17.6875 3.16796875 C-12.30543598 -0.42007393 -6.26473715 0.00892171 0 0 Z " fill="#B47A08" transform="translate(422.6875,45.83203125)"/>
<path d="M0 0 C0.83496002 0.00141495 1.66992004 0.0028299 2.53018188 0.00428772 C5.17901292 0.00985451 7.8277573 0.02240078 10.4765625 0.03515625 C12.27994669 0.04017555 14.08333221 0.0447377 15.88671875 0.04882812 C20.29169971 0.05981305 24.69661644 0.07705462 29.1015625 0.09765625 C29.1015625 0.42765625 29.1015625 0.75765625 29.1015625 1.09765625 C24.6465625 1.59265625 24.6465625 1.59265625 20.1015625 2.09765625 C20.5965625 2.59265625 20.5965625 2.59265625 21.1015625 3.09765625 C21.23093415 5.88065101 21.29185659 8.62640488 21.2890625 11.41015625 C21.28825684 12.22379639 21.28745117 13.03743652 21.28662109 13.87573242 C21.20175846 22.29959697 20.43706176 30.29146679 17.1015625 38.09765625 C15.0415254 38.34799751 12.97828784 38.57208971 10.9140625 38.78515625 C9.19123047 38.97658203 9.19123047 38.97658203 7.43359375 39.171875 C3.59378476 39.08634584 2.01708956 38.57533914 -0.8984375 36.09765625 C-5.11443418 27.58923998 -5.91705517 17.43370127 -6.8984375 8.09765625 C-8.2184375 7.76765625 -9.5384375 7.43765625 -10.8984375 7.09765625 C-10.81669577 10.59855055 -10.70393482 14.09781118 -10.5859375 17.59765625 C-10.56337891 18.57992187 -10.54082031 19.5621875 -10.51757812 20.57421875 C-10.20986971 28.96626646 -8.34073393 34.90536679 -3.8984375 42.09765625 C-3.8984375 42.75765625 -3.8984375 43.41765625 -3.8984375 44.09765625 C-2.9496875 44.18015625 -2.0009375 44.26265625 -1.0234375 44.34765625 C2.1015625 45.09765625 2.1015625 45.09765625 3.6015625 46.91015625 C4.1015625 49.09765625 4.1015625 49.09765625 3.2265625 51.34765625 C2.8553125 51.92515625 2.4840625 52.50265625 2.1015625 53.09765625 C1.8953125 52.52015625 1.6890625 51.94265625 1.4765625 51.34765625 C0.17137266 48.84959821 0.17137266 48.84959821 -2.7734375 47.22265625 C-5.8984375 45.09765625 -5.8984375 45.09765625 -7.7109375 41.84765625 C-9.55751025 38.89886268 -9.55751025 38.89886268 -12.14453125 38.71484375 C-14.42487315 38.7219587 -16.633994 38.83637431 -18.8984375 39.09765625 C-18.8984375 38.43765625 -18.8984375 37.77765625 -18.8984375 37.09765625 C-17.9084375 37.09765625 -16.9184375 37.09765625 -15.8984375 37.09765625 C-18.66411074 34.1723021 -21.47497698 31.92877209 -24.8359375 29.72265625 C-29.0107249 26.82435481 -32.19356353 24.42545461 -34.8984375 20.09765625 C-35.58203636 15.76819683 -35.4263658 13.90714631 -33.0234375 10.22265625 C-30.83516165 8.0343804 -29.90365027 7.16250869 -26.83984375 6.96484375 C-25.66228516 6.96871094 -25.66228516 6.96871094 -24.4609375 6.97265625 C-23.28724609 6.96878906 -23.28724609 6.96878906 -22.08984375 6.96484375 C-19.8984375 7.09765625 -19.8984375 7.09765625 -16.8984375 8.09765625 C-17.2284375 6.44765625 -17.5584375 4.79765625 -17.8984375 3.09765625 C-12.44000731 -0.54129721 -6.34391799 -0.0409164 0 0 Z " fill="#9A6402" transform="translate(422.8984375,45.90234375)"/>
<path d="M0 0 C0.33 0 0.66 0 1 0 C1 2.31 1 4.62 1 7 C1.66 7.33 2.32 7.66 3 8 C2.34 8 1.68 8 1 8 C1 13.61 1 19.22 1 25 C7.435 24.505 7.435 24.505 14 24 C14 23.34 14 22.68 14 22 C13.01 21.67 12.02 21.34 11 21 C11.33 20.34 11.66 19.68 12 19 C10.35 19 8.7 19 7 19 C7.66 17.68 8.32 16.36 9 15 C13.6875 18.61328125 13.6875 18.61328125 15 20 C15 20.99 15 21.98 15 23 C16.7015625 22.9690625 16.7015625 22.9690625 18.4375 22.9375 C22 23 22 23 23 24 C23.07258946 26.18639453 23.08373783 28.37500389 23.0625 30.5625 C23.05347656 31.76003906 23.04445313 32.95757812 23.03515625 34.19140625 C23.02355469 35.11824219 23.01195312 36.04507813 23 37 C23.78375 36.938125 24.5675 36.87625 25.375 36.8125 C26.674375 36.9053125 26.674375 36.9053125 28 37 C30 40 30 40 30 43 C27.45061185 44.27469407 25.66959002 44.12016184 22.81591797 44.11352539 C21.73494843 44.11344986 20.65397888 44.11337433 19.54025269 44.11329651 C17.78396042 44.10555458 17.78396042 44.10555458 15.9921875 44.09765625 C14.79643097 44.0962413 13.60067444 44.09482635 12.36868286 44.09336853 C8.53743013 44.08775663 4.70623516 44.07520208 0.875 44.0625 C-1.71744707 44.05748653 -4.30989506 44.05292336 -6.90234375 44.04882812 C-13.26824898 44.03778333 -19.63412037 44.02103359 -26 44 C-26.625 42.1875 -26.625 42.1875 -27 40 C-26.34 39.01 -25.68 38.02 -25 37 C-21.875 36.8125 -21.875 36.8125 -19 37 C-19.01160156 36.07316406 -19.02320313 35.14632812 -19.03515625 34.19140625 C-19.04417969 32.99386719 -19.05320312 31.79632813 -19.0625 30.5625 C-19.07410156 29.36753906 -19.08570313 28.17257813 -19.09765625 26.94140625 C-19 24 -19 24 -18 23 C-16.00041636 22.95919217 -13.99954746 22.95745644 -12 23 C-11.938125 22.401875 -11.87625 21.80375 -11.8125 21.1875 C-10.67199005 18.11689628 -8.82187415 17.51417637 -6 16 C-5.34 15.34 -4.68 14.68 -4 14 C-3.67 15.65 -3.34 17.3 -3 19 C-4.98 19 -6.96 19 -9 19 C-8.67 19.99 -8.34 20.98 -8 22 C-8.66 22 -9.32 22 -10 22 C-9.67 22.66 -9.34 23.32 -9 24 C-6.97536745 24.65213292 -6.97536745 24.65213292 -5 25 C-5 24.34 -5 23.68 -5 23 C-4.01 22.67 -3.02 22.34 -2 22 C-2 21.34 -2 20.68 -2 20 C-1.34 20 -0.68 20 0 20 C-0.12568359 18.21142578 -0.12568359 18.21142578 -0.25390625 16.38671875 C-0.35708136 14.82033292 -0.45992889 13.25392549 -0.5625 11.6875 C-0.61857422 10.90181641 -0.67464844 10.11613281 -0.73242188 9.30664062 C-0.78076172 8.54931641 -0.82910156 7.79199219 -0.87890625 7.01171875 C-0.9260376 6.31522217 -0.97316895 5.61872559 -1.02172852 4.90112305 C-1 3 -1 3 0 0 Z " fill="#852B00" transform="translate(430,92)"/>
<path d="M0 0 C3 2 3 2 3.38476562 3.8125 C3.39185547 4.534375 3.39894531 5.25625 3.40625 6 C3.4259082 6.80026611 3.44556641 7.60053223 3.46582031 8.42504883 C3.48273926 9.69964966 3.48273926 9.69964966 3.5 11 C3.85941734 21.56430267 4.87982412 28.94295887 12 37 C12.8125 39.875 12.8125 39.875 13 42 C13.94875 42.0825 14.8975 42.165 15.875 42.25 C19 43 19 43 20.5 44.8125 C21 47 21 47 20.125 49.25 C19.75375 49.8275 19.3825 50.405 19 51 C18.79375 50.4225 18.5875 49.845 18.375 49.25 C17.06981016 46.75194196 17.06981016 46.75194196 14.125 45.125 C11 43 11 43 9.1875 39.75 C7.34092725 36.80120643 7.34092725 36.80120643 4.75390625 36.6171875 C2.47356435 36.62430245 0.2644435 36.73871806 -2 37 C-2 36.34 -2 35.68 -2 35 C-1.01 35 -0.02 35 1 35 C-1.76567324 32.07464585 -4.57653948 29.83111584 -7.9375 27.625 C-12.1122874 24.72669856 -15.29512603 22.32779836 -18 18 C-18.68359886 13.67054058 -18.5279283 11.80949006 -16.125 8.125 C-13.93672415 5.93672415 -13.00521277 5.06485244 -9.94140625 4.8671875 C-8.76384766 4.87105469 -8.76384766 4.87105469 -7.5625 4.875 C-6.38880859 4.87113281 -6.38880859 4.87113281 -5.19140625 4.8671875 C-3 5 -3 5 0 6 C-0.185625 5.195625 -0.37125 4.39125 -0.5625 3.5625 C-0.706875 2.716875 -0.85125 1.87125 -1 1 C-0.67 0.67 -0.34 0.34 0 0 Z " fill="#794E06" transform="translate(406,48)"/>
<path d="M0 0 C0 1.98 0 3.96 0 6 C0.66 5.67 1.32 5.34 2 5 C8.10397596 4.49133534 11.10769166 4.94296382 16 9 C17.63023814 12.26047629 17.4673535 14.37801035 17 18 C13.20299913 24.63174809 7.04417824 28.05087265 0.4765625 31.5546875 C-2.10814719 32.76039003 -2.10814719 32.76039003 -3 35 C-1.68 35 -0.36 35 1 35 C1 35.66 1 36.32 1 37 C-2.5219721 37.08004482 -5.61981469 37.04005702 -9 36 C-9.226875 36.721875 -9.45375 37.44375 -9.6875 38.1875 C-11.50394694 42.0798863 -14.12274973 45.06137486 -18 47 C-19.13350534 49.01669827 -19.13350534 49.01669827 -20 51 C-20.66 49.35 -21.32 47.7 -22 46 C-21.33613281 45.59910156 -20.67226563 45.19820312 -19.98828125 44.78515625 C-12.29557385 39.83262492 -8.22099146 34.86939889 -5.6875 26.0625 C-4.60309396 20.53202918 -4.93272772 14.81392031 -5.16088867 9.20727539 C-5.31734455 3.39861911 -5.31734455 3.39861911 -3.61108398 1.25537109 C-2 0 -2 0 0 0 Z " fill="#AE750E" transform="translate(458,48)"/>
<path d="M0 0 C8.25 0 16.5 0 25 0 C25 0.99 25 1.98 25 3 C18.07 3 11.14 3 4 3 C4 26.1 4 49.2 4 73 C10.93 73 17.86 73 25 73 C25 73.99 25 74.98 25 76 C17.08 76 9.16 76 1 76 C1 63.79 1 51.58 1 39 C-8.24 39 -17.48 39 -27 39 C-27 35.37 -27 31.74 -27 28 C-26.67 28 -26.34 28 -26 28 C-26 30.64 -26 33.28 -26 36 C-17.42 36 -8.84 36 0 36 C0 24.12 0 12.24 0 0 Z " fill="#A2A2A2" transform="translate(631,266)"/>
<path d="M0 0 C6.93 0 13.86 0 21 0 C21 0.33 21 0.66 21 1 C16.545 1.495 16.545 1.495 12 2 C12.33 2.33 12.66 2.66 13 3 C13.12937165 5.78299476 13.19029409 8.52874863 13.1875 11.3125 C13.18669434 12.12614014 13.18588867 12.93978027 13.18505859 13.77807617 C13.10019596 22.20194072 12.33549926 30.19381054 9 38 C4.545 38.495 4.545 38.495 0 39 C0 26.13 0 13.26 0 0 Z " fill="#CE8D02" transform="translate(431,46)"/>
<path d="M0 0 C1.32 0 2.64 0 4 0 C4 24.42 4 48.84 4 74 C7.96 74 11.92 74 16 74 C16 74.99 16 75.98 16 77 C6.76 77 -2.48 77 -12 77 C-12 73.37 -12 69.74 -12 66 C-11.67 66 -11.34 66 -11 66 C-11 68.64 -11 71.28 -11 74 C-7.37 74 -3.74 74 0 74 C0 49.58 0 25.16 0 0 Z " fill="#999999" transform="translate(428,225)"/>
<path d="M0 0 C11.22 0 22.44 0 34 0 C34 3.63 34 7.26 34 11 C22.78 11 11.56 11 0 11 C0 7.37 0 3.74 0 0 Z " fill="#DDA33D" transform="translate(415,120)"/>
<path d="M0 0 C7.59 0 15.18 0 23 0 C23 25.08 23 50.16 23 76 C15.41 76 7.82 76 0 76 C0 75.01 0 74.02 0 73 C6.6 73 13.2 73 20 73 C20 49.9 20 26.8 20 3 C13.4 3 6.8 3 0 3 C0 2.01 0 1.02 0 0 Z " fill="#B3B3B3" transform="translate(204,263)"/>
<path d="M0 0 C1.45792884 -0.05399736 2.91642712 -0.09279177 4.375 -0.125 C5.18710937 -0.14820313 5.99921875 -0.17140625 6.8359375 -0.1953125 C9 0 9 0 11 2 C10.34 2 9.68 2 9 2 C9.01047363 2.55872803 9.02094727 3.11745605 9.03173828 3.69311523 C9.07383379 6.2745293 9.09949343 8.85587076 9.125 11.4375 C9.14175781 12.31599609 9.15851563 13.19449219 9.17578125 14.09960938 C9.23517665 22.14768646 8.46722492 29.42294041 4.125 36.375 C3.38636719 37.59316406 3.38636719 37.59316406 2.6328125 38.8359375 C0.91913073 41.1071808 -0.56240085 42.53837446 -3 44 C-6.75 44.1875 -6.75 44.1875 -10 44 C-9.60167969 43.52691406 -9.20335937 43.05382812 -8.79296875 42.56640625 C-4.84289641 37.63602398 -2.60963524 33.09967039 -1 27 C-0.34 27 0.32 27 1 27 C0.97679687 26.20078125 0.95359375 25.4015625 0.9296875 24.578125 C0.80223338 16.82163126 1.46605703 9.60123527 3 2 C2.01 2 1.02 2 0 2 C0 1.34 0 0.68 0 0 Z " fill="#FCE871" transform="translate(445,47)"/>
<path d="M0 0 C0.33 0 0.66 0 1 0 C1 2.31 1 4.62 1 7 C1.66 7.33 2.32 7.66 3 8 C2.34 8 1.68 8 1 8 C1 13.61 1 19.22 1 25 C7.435 24.505 7.435 24.505 14 24 C14 23.34 14 22.68 14 22 C13.01 21.67 12.02 21.34 11 21 C11.33 20.34 11.66 19.68 12 19 C10.35 19 8.7 19 7 19 C7.66 17.68 8.32 16.36 9 15 C13.6875 18.61328125 13.6875 18.61328125 15 20 C15 20.99 15 21.98 15 23 C16.134375 22.979375 17.26875 22.95875 18.4375 22.9375 C22 23 22 23 23 24 C23.07258946 26.18639453 23.08373783 28.37500389 23.0625 30.5625 C23.05347656 31.76003906 23.04445313 32.95757812 23.03515625 34.19140625 C23.02355469 35.11824219 23.01195312 36.04507813 23 37 C23.78375 36.938125 24.5675 36.87625 25.375 36.8125 C26.674375 36.9053125 26.674375 36.9053125 28 37 C30 40 30 40 30 43 C29.01 43 28.02 43 27 43 C27 42.34 27 41.68 27 41 C13.47 41 -0.06 41 -14 41 C-14 40.34 -14 39.68 -14 39 C-3.11 39 7.78 39 19 39 C19 34.71 19 30.42 19 26 C9.1 26 -0.8 26 -11 26 C-12 20 -12 20 -10.75 18.1875 C-9 17 -9 17 -6 16 C-5.34 15.34 -4.68 14.68 -4 14 C-3.67 15.65 -3.34 17.3 -3 19 C-4.98 19 -6.96 19 -9 19 C-8.67 19.99 -8.34 20.98 -8 22 C-8.66 22 -9.32 22 -10 22 C-9.67 22.66 -9.34 23.32 -9 24 C-6.97536745 24.65213292 -6.97536745 24.65213292 -5 25 C-5 24.34 -5 23.68 -5 23 C-4.01 22.67 -3.02 22.34 -2 22 C-2 21.34 -2 20.68 -2 20 C-1.34 20 -0.68 20 0 20 C-0.08378906 18.80761719 -0.16757812 17.61523438 -0.25390625 16.38671875 C-0.35708136 14.82033292 -0.45992889 13.25392549 -0.5625 11.6875 C-0.61857422 10.90181641 -0.67464844 10.11613281 -0.73242188 9.30664062 C-0.78076172 8.54931641 -0.82910156 7.79199219 -0.87890625 7.01171875 C-0.9260376 6.31522217 -0.97316895 5.61872559 -1.02172852 4.90112305 C-1 3 -1 3 0 0 Z " fill="#9B4603" transform="translate(430,92)"/>
<path d="M0 0 C0.78246094 -0.02578125 1.56492187 -0.0515625 2.37109375 -0.078125 C4.5625 0.25 4.5625 0.25 6.3671875 1.59765625 C7.5625 3.25 7.5625 3.25 7.25 5.9375 C7.023125 6.700625 6.79625 7.46375 6.5625 8.25 C5.5725 8.25 4.5825 8.25 3.5625 8.25 C3.8925 7.26 4.2225 6.27 4.5625 5.25 C1.9225 5.58 -0.7175 5.91 -3.4375 6.25 C-3.6139288 9.54333753 -3.66314237 11.25228303 -2.4375 14.25 C0.15795445 16.58505523 2.85436587 18.42441427 5.80078125 20.29296875 C8.69759172 22.34572977 10.57673128 24.31658625 12.5625 27.25 C12.3125 29.5625 12.3125 29.5625 11.5625 31.25 C10.5725 31.25 9.5825 31.25 8.5625 31.25 C8.22992188 30.36248047 8.22992188 30.36248047 7.890625 29.45703125 C6.15389321 26.57099166 4.22339731 25.60371035 1.3125 23.9375 C-3.43974217 21.00872001 -7.69906312 18.23905504 -10.4375 13.25 C-11.19230051 8.87215702 -10.99124135 7.09907007 -8.5625 3.375 C-5.6429099 0.4554099 -4.02137944 0.079239 0 0 Z " fill="#B67D05" transform="translate(398.4375,52.75)"/>
<path d="M0 0 C0.33 0 0.66 0 1 0 C1.02578125 0.8971875 1.0515625 1.794375 1.078125 2.71875 C1.66028916 15.52636153 3.14069709 28.45198819 11 39 C11.66 39.99 12.32 40.98 13 42 C9.57591265 41.98715164 6.32784152 41.84405673 3 41 C1 38.0625 1 38.0625 0 35 C-0.66 34.34 -1.32 33.68 -2 33 C-4.35096364 26.87598632 -4.2349088 21.05980095 -4.125 14.5625 C-4.11597656 13.54478516 -4.10695313 12.52707031 -4.09765625 11.47851562 C-4.07424698 8.98542844 -4.041457 6.49284141 -4 4 C-3.01 4 -2.02 4 -1 4 C-0.67 2.68 -0.34 1.36 0 0 Z " fill="#DFB63F" transform="translate(416,49)"/>
<path d="M0 0 C1.98 0 3.96 0 6 0 C7.03330247 12.01214121 7.11317227 23.94976471 7 36 C6.34 36 5.68 36 5 36 C4.34253896 34.65144038 3.69968025 33.29575969 3.0625 31.9375 C2.70285156 31.18339844 2.34320313 30.42929688 1.97265625 29.65234375 C-0.41026334 23.15434214 -0.12633478 16.38300037 -0.0625 9.5625 C-0.05798828 8.64017578 -0.05347656 7.71785156 -0.04882812 6.76757812 C-0.03713938 4.51164952 -0.02075455 2.25586033 0 0 Z " fill="#6A3A00" transform="translate(422,48)"/>
<path d="M0 0 C6.93 0 13.86 0 21 0 C21 5 21 5 19.70703125 6.58203125 C13.32534534 10.72683757 7.43658157 10.51013136 0 10 C0 6.7 0 3.4 0 0 Z " fill="#F7C256" transform="translate(416,121)"/>
<path d="M0 0 C2.97 0 5.94 0 9 0 C9 0.66 9 1.32 9 2 C9.99 2 10.98 2 12 2 C11.90912109 3.07314453 11.90912109 3.07314453 11.81640625 4.16796875 C11.17665054 11.77614045 10.57712716 19.3868332 10 27 C9.34 27 8.68 27 8 27 C7.95875 27.969375 7.9175 28.93875 7.875 29.9375 C7.18683848 35.10400494 4.03343693 38.9090346 1 43 C2.32 43.66 3.64 44.32 5 45 C3.68 45.66 2.36 46.32 1 47 C1.33 48.65 1.66 50.3 2 52 C1.01 52 0.02 52 -1 52 C-1.33 49.69 -1.66 47.38 -2 45 C-2.66 45 -3.32 45 -4 45 C-4.33 43.02 -4.66 41.04 -5 39 C-1.5647952 36.70986347 -0.014669 36.82157027 4 37 C4.31307386 35.29177174 4.62543008 33.58341195 4.9375 31.875 C5.11152344 30.92367187 5.28554688 29.97234375 5.46484375 28.9921875 C5.64144531 28.00476563 5.81804687 27.01734375 6 26 C6.185625 25.0821875 6.37125 24.164375 6.5625 23.21875 C7.13555614 19.00269415 7.10654289 14.8734454 7.0625 10.625 C7.05798828 9.79355469 7.05347656 8.96210937 7.04882812 8.10546875 C7.03713164 6.07028103 7.01919935 4.03513077 7 2 C4.69 1.67 2.38 1.34 0 1 C0 0.67 0 0.34 0 0 Z " fill="#F3AF22" transform="translate(436,47)"/>
<path d="M0 0 C0.33 0.99 0.66 1.98 1 3 C1.99 3 2.98 3 4 3 C4.66 7.95 5.32 12.9 6 18 C0.50670469 15.80268188 -3.99908063 13.41981905 -8 9 C-8.78258191 5.97013894 -8.49830969 4.15596137 -8 1 C-5.29120665 -0.35439668 -2.99066732 -0.06501451 0 0 Z " fill="#2F2A22" transform="translate(403,58)"/>
<path d="M0 0 C1.47906892 -0.02689216 2.95827483 -0.04634621 4.4375 -0.0625 C5.26121094 -0.07410156 6.08492188 -0.08570313 6.93359375 -0.09765625 C9 0 9 0 10 1 C10.15686249 2.55948542 10.25076639 4.12542668 10.31640625 5.69140625 C10.37924805 7.10776367 10.37924805 7.10776367 10.44335938 8.55273438 C10.48267578 9.54595703 10.52199219 10.53917969 10.5625 11.5625 C10.60568359 12.55958984 10.64886719 13.55667969 10.69335938 14.58398438 C10.79980298 17.0558415 10.90181928 19.5278031 11 22 C10.67 22 10.34 22 10 22 C9.34 17.05 8.68 12.1 8 7 C6.68 6.67 5.36 6.34 4 6 C4.13942681 9.56278089 4.28767078 13.1251426 4.4375 16.6875 C4.47681641 17.69490234 4.51613281 18.70230469 4.55664062 19.74023438 C4.59853516 20.71669922 4.64042969 21.69316406 4.68359375 22.69921875 C4.72025146 23.59471436 4.75690918 24.49020996 4.79467773 25.4128418 C5.00061751 28.00778088 5.43767822 30.46054684 6 33 C4 32 4 32 3.18359375 30.3828125 C-0.03255766 20.65016583 0 10.17561657 0 0 Z " fill="#CD9820" transform="translate(408,47)"/>
<path d="M0 0 C5.875 0.875 5.875 0.875 7 2 C7.36328125 4.76171875 7.36328125 4.76171875 7 8 C4.91796875 10.51953125 4.91796875 10.51953125 2.1875 12.8125 C1.29417969 13.58207031 0.40085937 14.35164063 -0.51953125 15.14453125 C-3 17 -3 17 -6 18 C-5.85879286 16.06215735 -5.71187127 14.12473045 -5.5625 12.1875 C-5.48128906 11.10855469 -5.40007812 10.02960938 -5.31640625 8.91796875 C-5 6 -5 6 -4 3 C-3.01 3 -2.02 3 -1 3 C-0.67 2.01 -0.34 1.02 0 0 Z " fill="#2F2B25" transform="translate(461,58)"/>
<path d="M0 0 C1.45792884 -0.05399736 2.91642712 -0.09279177 4.375 -0.125 C5.18710937 -0.14820313 5.99921875 -0.17140625 6.8359375 -0.1953125 C9 0 9 0 11 2 C10.34 2 9.68 2 9 2 C9.01047363 2.55872803 9.02094727 3.11745605 9.03173828 3.69311523 C9.07383379 6.2745293 9.09949343 8.85587076 9.125 11.4375 C9.14175781 12.31599609 9.15851563 13.19449219 9.17578125 14.09960938 C9.23594394 22.25165398 8.43940864 29.48573435 4 36.5 C3.484375 37.3353125 2.96875 38.170625 2.4375 39.03125 C1 41 1 41 -1 42 C-0.43604115 38.47525721 1.22753543 35.83399763 3.015625 32.7890625 C7.25381501 25.08632034 7.15467807 16.54166701 7 8 C6.34 8 5.68 8 5 8 C3.45357192 13.6702363 2.51482919 19.147205 2 25 C1.67 25 1.34 25 1 25 C0.72009395 17.10042938 1.48462814 9.7527507 3 2 C2.01 2 1.02 2 0 2 C0 1.34 0 0.68 0 0 Z " fill="#FCC746" transform="translate(445,47)"/>
<path d="M0 0 C-0.99 0.66 -1.98 1.32 -3 2 C-3.853039 5.090721 -3.72235364 7.88913397 -3 11 C-1.07536997 13.57816484 1.35942619 15.19808393 4 17 C5.63406731 18.19604284 7.25902867 19.40461845 8.875 20.625 C10.01582031 21.44871094 10.01582031 21.44871094 11.1796875 22.2890625 C13.1996133 24.18761937 13.63363182 25.29360282 14 28 C13.01 28 12.02 28 11 28 C10.66742188 27.11248047 10.66742188 27.11248047 10.328125 26.20703125 C8.59139321 23.32099166 6.66089731 22.35371035 3.75 20.6875 C-0.98681189 17.7682296 -5.29329182 14.9936004 -8 10 C-8.60198813 5.48508904 -8.53604144 3.80406216 -6 0 C-3 -1 -3 -1 0 0 Z " fill="#DCB948" transform="translate(396,56)"/>
<path d="M0 0 C3.9760803 -0.46233492 5.56851204 -0.30954571 8.875 2.0625 C11 5 11 5 11.75 8.3125 C10.66049745 13.66922086 8.1343837 16.51011392 4 20 C0.85164207 21.96429306 -2.32439076 23.75407179 -5.62109375 25.45703125 C-6.40613281 25.96621094 -7.19117188 26.47539063 -8 27 C-8 27.99 -8 28.98 -8 30 C-8.99 29.67 -9.98 29.34 -11 29 C-11 27.68 -11 26.36 -11 25 C-10.443125 24.72027344 -9.88625 24.44054687 -9.3125 24.15234375 C-3.64350214 21.17420467 1.85657448 17.9784526 6 13 C7.13478487 9.33054374 7.13478487 9.33054374 7 6 C7 5.34 7 4.68 7 4 C6.21625 3.71125 5.4325 3.4225 4.625 3.125 C2 2 2 2 0 0 Z " fill="#EFBC40" transform="translate(464,54)"/>
<path d="M0 0 C0 7.26 0 14.52 0 22 C-0.66 22 -1.32 22 -2 22 C-1.67 22.99 -1.34 23.98 -1 25 C-2.32 25 -3.64 25 -5 25 C-5 25.66 -5 26.32 -5 27 C-6.65 26.67 -8.3 26.34 -10 26 C-9.67 24.35 -9.34 22.7 -9 21 C-7.35 20.67 -5.7 20.34 -4 20 C-2.93336333 12.45809251 -2.93336333 12.45809251 -4 5 C-4.185625 4.236875 -4.37125 3.47375 -4.5625 2.6875 C-4.706875 2.130625 -4.85125 1.57375 -5 1 C-1.125 0 -1.125 0 0 0 Z " fill="#C18A20" transform="translate(430,90)"/>
<path d="M0 0 C1.134375 0.020625 2.26875 0.04125 3.4375 0.0625 C3.4375 1.0525 3.4375 2.0425 3.4375 3.0625 C13.3375 3.0625 23.2375 3.0625 33.4375 3.0625 C33.4375 3.7225 33.4375 4.3825 33.4375 5.0625 C28.66868124 5.16150135 23.9004627 5.23402928 19.13085938 5.28222656 C17.50900857 5.30232144 15.88723003 5.32960254 14.265625 5.36425781 C11.9321102 5.4128727 9.59955443 5.43548889 7.265625 5.453125 C6.18102997 5.48409271 6.18102997 5.48409271 5.07452393 5.51568604 C1.49060029 5.51727743 -0.22727962 5.33512136 -3.05175781 3.03808594 C-3.7995752 2.0601709 -3.7995752 2.0601709 -4.5625 1.0625 C-3.5625 0.0625 -3.5625 0.0625 0 0 Z " fill="#842F00" transform="translate(415.5625,114.9375)"/>
<path d="M0 0 C0.66 0 1.32 0 2 0 C2.03758423 1.01368652 2.03758423 1.01368652 2.07592773 2.04785156 C2.19210742 5.1154168 2.31473437 8.18269158 2.4375 11.25 C2.47681641 12.31347656 2.51613281 13.37695312 2.55664062 14.47265625 C2.59853516 15.49746094 2.64042969 16.52226563 2.68359375 17.578125 C2.72025146 18.52075195 2.75690918 19.46337891 2.79467773 20.43457031 C2.97983371 22.74802933 3.434101 24.76055458 4 27 C3.73046875 29.76171875 3.73046875 29.76171875 3.1875 32.6875 C3.01605469 33.66074219 2.84460938 34.63398437 2.66796875 35.63671875 C2.44753906 36.41660156 2.22710937 37.19648437 2 38 C1.01 38.495 1.01 38.495 0 39 C0 26.13 0 13.26 0 0 Z " fill="#B57B00" transform="translate(431,46)"/>
<path d="M0 0 C0 1.98 0 3.96 0 6 C2.33317216 6.77772405 4.61435923 7.42415568 7 8 C7 8.66 7 9.32 7 10 C6.360625 10.12375 5.72125 10.2475 5.0625 10.375 C4.381875 10.58125 3.70125 10.7875 3 11 C2.67 11.66 2.34 12.32 2 13 C1.01 13 0.02 13 -1 13 C-1.12375 13.78375 -1.2475 14.5675 -1.375 15.375 C-2 18 -2 18 -4 20 C-4.24858198 17.22965863 -4.47452879 14.46060931 -4.6875 11.6875 C-4.76033203 10.90181641 -4.83316406 10.11613281 -4.90820312 9.30664062 C-4.96298828 8.54931641 -5.01777344 7.79199219 -5.07421875 7.01171875 C-5.13182373 6.31522217 -5.18942871 5.61872559 -5.2487793 4.90112305 C-4.83865674 1.76704617 -3.18467408 0 0 0 Z " fill="#B37C18" transform="translate(458,48)"/>
<path d="M0 0 C0.90492188 0.02320312 1.80984375 0.04640625 2.7421875 0.0703125 C4.10730469 0.09738281 4.10730469 0.09738281 5.5 0.125 C6.19867188 0.14820312 6.89734375 0.17140625 7.6171875 0.1953125 C7.30480946 3.08480934 6.97379871 4.78164349 5.0546875 7.0078125 C1.4752662 8.75163313 -1.42461092 8.39322258 -5.3828125 8.1953125 C-4.36047821 0.35741625 -4.36047821 0.35741625 0 0 Z " fill="#FCDD6A" transform="translate(425.3828125,121.8046875)"/>
<path d="M0 0 C0.66 0 1.32 0 2 0 C1.938125 0.721875 1.87625 1.44375 1.8125 2.1875 C2.03927331 5.5890997 2.96787379 7.29049839 5 10 C5.99 10.33 6.98 10.66 8 11 C8 11.66 8 12.32 8 13 C8.66 13.33 9.32 13.66 10 14 C10 14.66 10 15.32 10 16 C7.35541621 17.32229189 5.32238699 17.09677194 2.375 17.0625 C1.37210937 17.05347656 0.36921875 17.04445313 -0.6640625 17.03515625 C-1.43492187 17.02355469 -2.20578125 17.01195313 -3 17 C-3 16.34 -3 15.68 -3 15 C-1.68 15 -0.36 15 1 15 C0.75443359 14.18789062 0.75443359 14.18789062 0.50390625 13.359375 C-0.08590587 10.59777407 -0.09609308 8.07181861 -0.0625 5.25 C-0.05347656 4.26515625 -0.04445313 3.2803125 -0.03515625 2.265625 C-0.02355469 1.51796875 -0.01195312 0.7703125 0 0 Z " fill="#E0A220" transform="translate(434,100)"/>
<path d="M0 0 C0.66 0 1.32 0 2 0 C4.15626379 7.54692326 5.04905387 15.23056782 6 23 C5.01 23.33 4.02 23.66 3 24 C-0.90281671 16.19436658 -0.27891493 8.51207047 0 0 Z " fill="#E3CA56" transform="translate(413,55)"/>
<path d="M0 0 C0.33 0 0.66 0 1 0 C1 4.62 1 9.24 1 14 C0.67 14 0.34 14 0 14 C-0.33 11.36 -0.66 8.72 -1 6 C-1.66 6 -2.32 6 -3 6 C-2.88525534 8.54250021 -2.7585303 11.08347338 -2.625 13.625 C-2.5940625 14.33785156 -2.563125 15.05070312 -2.53125 15.78515625 C-2.28886728 20.18844227 -1.56218947 23.83416142 0 28 C0.71957146 30.65619589 1.35414165 33.32430114 2 36 C-0.90765077 34.35233123 -1.90459951 33.24645126 -3.125 30.09375 C-4.46841283 24.9841488 -4.21370649 19.80641802 -4.125 14.5625 C-4.11597656 13.54478516 -4.10695313 12.52707031 -4.09765625 11.47851562 C-4.07424698 8.98542844 -4.041457 6.49284141 -4 4 C-3.01 4 -2.02 4 -1 4 C-0.67 2.68 -0.34 1.36 0 0 Z " fill="#DBA72A" transform="translate(416,49)"/>
<path d="M0 0 C0.99 0 1.98 0 3 0 C3.05437005 2.85442753 3.09384974 5.70780076 3.125 8.5625 C3.15013672 9.76229492 3.15013672 9.76229492 3.17578125 10.98632812 C3.21723982 16.06500335 2.64056075 20.18811906 1 25 C0.34 25 -0.32 25 -1 25 C-0.67 16.75 -0.34 8.5 0 0 Z " fill="#C78200" transform="translate(441,49)"/>
<path d="M0 0 C0.8945137 0.20935684 0.8945137 0.20935684 1.80709839 0.42294312 C8.19863693 1.82278035 14.28914304 2.33317656 20.8203125 2.4140625 C21.80498505 2.43342865 22.78965759 2.4527948 23.8041687 2.4727478 C26.91102778 2.53193636 30.01792514 2.57868336 33.125 2.625 C35.24741089 2.6632358 37.36980719 2.70229067 39.4921875 2.7421875 C44.66133811 2.83758705 49.83056117 2.92183885 55 3 C55 3.33 55 3.66 55 4 C37.18 4 19.36 4 1 4 C0.67 2.68 0.34 1.36 0 0 Z " fill="#6A2405" transform="translate(403,132)"/>
<path d="M0 0 C1.32 0.66 2.64 1.32 4 2 C4 6.29 4 10.58 4 15 C0.37 14.67 -3.26 14.34 -7 14 C-6.67 13.34 -6.34 12.68 -6 12 C-4.02 12 -2.04 12 0 12 C0 8.04 0 4.08 0 0 Z " fill="#652501" transform="translate(411,117)"/>
<path d="M0 0 C-0.66 1.98 -1.32 3.96 -2 6 C-0.68 6.66 0.64 7.32 2 8 C0.02 8.99 0.02 8.99 -2 10 C-1.67 11.65 -1.34 13.3 -1 15 C-1.99 15 -2.98 15 -4 15 C-4.33 12.69 -4.66 10.38 -5 8 C-5.66 8 -6.32 8 -7 8 C-7.33 6.02 -7.66 4.04 -8 2 C-4.77208445 -0.1519437 -3.71599191 -0.20086443 0 0 Z " fill="#E5A528" transform="translate(439,84)"/>
<path d="M0 0 C0.95465783 2.16967689 1.14401212 3.56328793 0.3984375 5.82421875 C-0.35870385 7.5684743 -1.17609198 9.28627131 -2 11 C-1.01 11.33 -0.02 11.66 1 12 C-0.43260857 14.58793807 -1.88841619 16.91454966 -4 19 C-7.8125 19.4375 -7.8125 19.4375 -11 19 C-10.60167969 18.52691406 -10.20335937 18.05382812 -9.79296875 17.56640625 C-5.84289641 12.63602398 -3.60963524 8.09967039 -2 2 C-1.34 2 -0.68 2 0 2 C0 1.34 0 0.68 0 0 Z " fill="#FBD85B" transform="translate(446,72)"/>
<path d="M0 0 C2.64 0 5.28 0 8 0 C7.34 0.66 6.68 1.32 6 2 C6.804375 2.350625 7.60875 2.70125 8.4375 3.0625 C11 5 11 5 12.0625 8.375 C11.98829559 12.67885585 10.98803047 14.01196953 8 17 C7.34 16.67 6.68 16.34 6 16 C6.350625 15.443125 6.70125 14.88625 7.0625 14.3125 C8.23176473 11.42831368 7.94934202 9.92713788 7 7 C6.34 6.67 5.68 6.34 5 6 C5 5.01 5 4.02 5 3 C3.35 3 1.7 3 0 3 C0 2.01 0 1.02 0 0 Z " fill="#7D4906" transform="translate(460,53)"/>
<path d="M0 0 C2.97 0.99 5.94 1.98 9 3 C9 5.31 9 7.62 9 10 C9.66 10 10.32 10 11 10 C11.33 11.98 11.66 13.96 12 16 C10.68 16 9.36 16 8 16 C7.87625 14.081875 7.87625 14.081875 7.75 12.125 C7.52830904 9.93457165 7.52830904 9.93457165 7 8 C5.15017528 6.74172877 5.15017528 6.74172877 3 6 C0 1.60714286 0 1.60714286 0 0 Z " fill="#A77515" transform="translate(423,82)"/>
<path d="M0 0 C2.78388975 1.70625501 3.85384206 2.47626739 4.75 5.6875 C4.8325 6.450625 4.915 7.21375 5 8 C5.94875 8.0825 6.8975 8.165 7.875 8.25 C11 9 11 9 12.5 10.8125 C13 13 13 13 12.125 15.25 C11.75375 15.8275 11.3825 16.405 11 17 C10.79375 16.4225 10.5875 15.845 10.375 15.25 C8.50015191 12.18206676 6.01875706 10.88672316 3 9 C0.23776722 6.23776722 0.42143709 3.79293383 0 0 Z " fill="#875A08" transform="translate(414,82)"/>
<path d="M0 0 C2.97 0.495 2.97 0.495 6 1 C4.68 1.33 3.36 1.66 2 2 C2.3243599 12.69269189 2.74192428 22.73398784 6 33 C4 32 4 32 3.18359375 30.3828125 C-0.03255766 20.65016583 0 10.17561657 0 0 Z " fill="#B67E05" transform="translate(408,47)"/>
<path d="M0 0 C0.33 0 0.66 0 1 0 C1 3.63 1 7.26 1 11 C0.34 11 -0.32 11 -1 11 C-0.67 11.99 -0.34 12.98 0 14 C-1.32 14 -2.64 14 -4 14 C-4 14.66 -4 15.32 -4 16 C-5.65 15.67 -7.3 15.34 -9 15 C-8.67 13.35 -8.34 11.7 -8 10 C-4.535 9.505 -4.535 9.505 -1 9 C-0.67 6.03 -0.34 3.06 0 0 Z " fill="#A26A0A" transform="translate(429,101)"/>
<path d="M0 0 C-1.85731565 5.34859888 -6.72823808 6.82468105 -11.4453125 9.31640625 C-12.28835938 9.87199219 -13.13140625 10.42757812 -14 11 C-14 11.99 -14 12.98 -14 14 C-14.99 13.67 -15.98 13.34 -17 13 C-17 11.68 -17 10.36 -17 9 C-16.40832031 8.68546875 -15.81664062 8.3709375 -15.20703125 8.046875 C-11.61934372 6.10378812 -8.31342699 4.25210432 -5.125 1.6875 C-3 0 -3 0 0 0 Z " fill="#ECCC54" transform="translate(470,70)"/>
<path d="M0 0 C0.99 0.33 1.98 0.66 3 1 C3 4.3 3 7.6 3 11 C2.67 11 2.34 11 2 11 C1.67 9.35 1.34 7.7 1 6 C-0.80317221 9.96697886 -1.49202991 13.6822542 -2 18 C-2.33 18 -2.66 18 -3 18 C-3.2525244 11.9394143 -2.76590968 6.81711423 -1 1 C-0.67 0.67 -0.34 0.34 0 0 Z " fill="#FCD557" transform="translate(450,54)"/>
<path d="M0 0 C1.16015625 0.01160156 1.16015625 0.01160156 2.34375 0.0234375 C3.1171875 0.01570313 3.890625 0.00796875 4.6875 0 C7.33847805 0.48985464 8.26708162 1.23629617 9.84375 3.3984375 C9.53125 6.0859375 9.53125 6.0859375 8.84375 8.3984375 C7.85375 8.3984375 6.86375 8.3984375 5.84375 8.3984375 C5.84375 6.4184375 5.84375 4.4384375 5.84375 2.3984375 C2.21375 2.7284375 -1.41625 3.0584375 -5.15625 3.3984375 C-2.15625 0.3984375 -2.15625 0.3984375 0 0 Z " fill="#BC8514" transform="translate(396.15625,52.6015625)"/>
<path d="M0 0 C0.99 0.33 1.98 0.66 3 1 C2.67 7.6 2.34 14.2 2 21 C0 19 0 19 -0.22705078 17.02880859 C-0.21657715 16.24328613 -0.20610352 15.45776367 -0.1953125 14.6484375 C-0.18886719 13.79765625 -0.18242187 12.946875 -0.17578125 12.0703125 C-0.15902344 11.18085937 -0.14226562 10.29140625 -0.125 9.375 C-0.11597656 8.4778125 -0.10695313 7.580625 -0.09765625 6.65625 C-0.0740497 4.43723414 -0.0411231 2.21874923 0 0 Z " fill="#D79A16" transform="translate(410,49)"/>
<path d="M0 0 C1.45792884 -0.05399736 2.91642712 -0.09279177 4.375 -0.125 C5.18710937 -0.14820313 5.99921875 -0.17140625 6.8359375 -0.1953125 C9 0 9 0 11 2 C10.34 2 9.68 2 9 2 C8.34 3.32 7.68 4.64 7 6 C5.68 6 4.36 6 3 6 C3 4.68 3 3.36 3 2 C2.01 2 1.02 2 0 2 C0 1.34 0 0.68 0 0 Z " fill="#F6BC38" transform="translate(445,47)"/>
<path d="M0 0 C4.62 0 9.24 0 14 0 C14 1.65 14 3.3 14 5 C8.7265625 8.22265625 8.7265625 8.22265625 7 9 C6.34 8.67 5.68 8.34 5 8 C5.639375 7.5875 6.27875 7.175 6.9375 6.75 C9.41464576 4.99276136 9.41464576 4.99276136 10 1 C6.7 1 3.4 1 0 1 C0 0.67 0 0.34 0 0 Z " fill="#FAC55A" transform="translate(423,121)"/>
<path d="M0 0 C1.59222311 3.18444622 0.90874024 6.53289272 0.6875 10 C0.65205078 10.73734375 0.61660156 11.4746875 0.58007812 12.234375 C0.24243805 17.75756195 0.24243805 17.75756195 -2 20 C-2.24858198 17.22965863 -2.47452879 14.46060931 -2.6875 11.6875 C-2.76033203 10.90181641 -2.83316406 10.11613281 -2.90820312 9.30664062 C-2.96298828 8.54931641 -3.01777344 7.79199219 -3.07421875 7.01171875 C-3.13182373 6.31522217 -3.18942871 5.61872559 -3.2487793 4.90112305 C-2.92238821 2.40690575 -1.8898183 1.5788082 0 0 Z " fill="#E79E13" transform="translate(456,48)"/>
<path d="M0 0 C0.33 0 0.66 0 1 0 C1 2.31 1 4.62 1 7 C1.66 7.33 2.32 7.66 3 8 C2.34 8 1.68 8 1 8 C1 12.95 1 17.9 1 23 C-0.98 23.99 -0.98 23.99 -3 25 C-2.67 23.35 -2.34 21.7 -2 20 C-1.34 20 -0.68 20 0 20 C-0.08378906 18.80761719 -0.16757812 17.61523438 -0.25390625 16.38671875 C-0.35708136 14.82033292 -0.45992889 13.25392549 -0.5625 11.6875 C-0.61857422 10.90181641 -0.67464844 10.11613281 -0.73242188 9.30664062 C-0.78076172 8.54931641 -0.82910156 7.79199219 -0.87890625 7.01171875 C-0.94960327 5.96697388 -0.94960327 5.96697388 -1.02172852 4.90112305 C-1 3 -1 3 0 0 Z " fill="#6B3D02" transform="translate(430,92)"/>
<path d="M0 0 C-0.99 0.66 -1.98 1.32 -3 2 C-3.57748803 3.96361864 -3.57748803 3.96361864 -3.6875 6.125 C-3.790625 7.40375 -3.89375 8.6825 -4 10 C-4.99 9.67 -5.98 9.34 -7 9 C-7 6.36 -7 3.72 -7 1 C-3.375 -1.125 -3.375 -1.125 0 0 Z " fill="#E3A91E" transform="translate(396,56)"/>
<path d="M0 0 C0 3.71253164 -0.783548 5.04473066 -3 8 C-6.1875 9.8125 -6.1875 9.8125 -9 11 C-8.46324097 7.14896699 -6.88399077 5.68202413 -3.9375 3.25 C-3.20402344 2.63640625 -2.47054688 2.0228125 -1.71484375 1.390625 C-1.14894531 0.93171875 -0.58304687 0.4728125 0 0 Z " fill="#9E6209" transform="translate(468,65)"/>
<path d="M0 0 C0.66 0 1.32 0 2 0 C2 2.31 2 4.62 2 7 C0.35 7 -1.3 7 -3 7 C-2.25 2.25 -2.25 2.25 0 0 Z " fill="#FDC957" transform="translate(446,123)"/>
<path d="M0 0 C2.64 0.33 5.28 0.66 8 1 C7.319375 1.5775 6.63875 2.155 5.9375 2.75 C4.9784375 3.86375 4.9784375 3.86375 4 5 C4.13641377 7.21858253 4.13641377 7.21858253 5 9 C4.01 9 3.02 9 2 9 C1.34 6.03 0.68 3.06 0 0 Z " fill="#E3A732" transform="translate(433,90)"/>
<path d="M0 0 C0.66 0 1.32 0 2 0 C2.33 2.64 2.66 5.28 3 8 C2.34 8 1.68 8 1 8 C1 10.64 1 13.28 1 16 C0.67 16 0.34 16 0 16 C0 10.72 0 5.44 0 0 Z " fill="#DDBD48" transform="translate(413,55)"/>
<path d="M0 0 C0 0.99 0 1.98 0 3 C-2.31 3.33 -4.62 3.66 -7 4 C-7 5.98 -7 7.96 -7 10 C-7.33 10 -7.66 10 -8 10 C-8.29296875 3.9453125 -8.29296875 3.9453125 -8 2 C-4.77208445 -0.1519437 -3.71599191 -0.20086443 0 0 Z " fill="#905C03" transform="translate(402,55)"/>
<path d="M0 0 C5.41538462 -0.36923077 5.41538462 -0.36923077 8.375 1.5 C8.91125 1.995 9.4475 2.49 10 3 C9.67 3.99 9.34 4.98 9 6 C8.34 6 7.68 6 7 6 C7 5.34 7 4.68 7 4 C6.21625 3.71125 5.4325 3.4225 4.625 3.125 C2 2 2 2 0 0 Z " fill="#DD9605" transform="translate(464,54)"/>
<path d="M0 0 C2.31 0 4.62 0 7 0 C5.71034824 1.37562854 4.37310707 2.70766393 3 4 C2.34 4 1.68 4 1 4 C1.33 5.98 1.66 7.96 2 10 C1.34 10 0.68 10 0 10 C0 6.7 0 3.4 0 0 Z " fill="#E7AE47" transform="translate(416,121)"/>
<path d="M0 0 C2 3.875 2 3.875 2 5 C0.02 5 -1.96 5 -4 5 C-3.67 5.99 -3.34 6.98 -3 8 C-4.32 8.33 -5.64 8.66 -7 9 C-6.8125 7.1875 -6.8125 7.1875 -6 5 C-3.5 3.375 -3.5 3.375 -1 2 C-0.67 1.34 -0.34 0.68 0 0 Z " fill="#764A05" transform="translate(425,106)"/>
<path d="M0 0 C0.66 0.33 1.32 0.66 2 1 C0.576875 1.86625 0.576875 1.86625 -0.875 2.75 C-3.76134098 4.82816551 -4.84095741 5.75468075 -6 9 C-6.66 7.35 -7.32 5.7 -8 4 C-5.32521756 2.3372974 -3.0004856 1.00016187 0 0 Z " fill="#936516" transform="translate(444,90)"/>
<path d="M0 0 C0.66 0 1.32 0 2 0 C2 3.63 2 7.26 2 11 C1.01 10.67 0.02 10.34 -1 10 C-0.67 6.7 -0.34 3.4 0 0 Z " fill="#E5A720" transform="translate(427,100)"/>
<path d="M0 0 C2.62901288 1.52206009 4.84365964 2.84365964 7 5 C6.625 7.125 6.625 7.125 6 9 C6 8.34 6 7.68 6 7 C5.01 6.67 4.02 6.34 3 6 C3.33 5.34 3.66 4.68 4 4 C2.35 4 0.7 4 -1 4 C-0.67 2.68 -0.34 1.36 0 0 Z " fill="#935E0C" transform="translate(438,107)"/>
<path d="M0 0 C3.35291118 -0.37254569 4.6038423 -0.31050198 7.3125 1.8125 C9 4 9 4 9 7 C8.01 7 7.02 7 6 7 C5.62875 6.1028125 5.62875 6.1028125 5.25 5.1875 C3.83629988 2.71352479 2.34944617 1.56629745 0 0 Z " fill="#E0B932" transform="translate(401,77)"/>
<path d="M0 0 C0.33 0 0.66 0 1 0 C1.53251766 1.91345327 2.05059483 3.8309295 2.5625 5.75 C2.85253906 6.81734375 3.14257812 7.8846875 3.44140625 8.984375 C3.97098494 11.84335927 3.98370862 13.31597383 3 16 C-0.42724441 10.85913339 -0.1015597 5.99202204 0 0 Z " fill="#DBA730" transform="translate(417,64)"/>
<path d="M0 0 C1.32 0 2.64 0 4 0 C3.67 1.65 3.34 3.3 3 5 C1.35 4.67 -0.3 4.34 -2 4 C-2 3.34 -2 2.68 -2 2 C-1.34 2 -0.68 2 0 2 C0 1.34 0 0.68 0 0 Z " fill="#DDA730" transform="translate(422,112)"/>
<path d="M0 0 C0.99 0 1.98 0 3 0 C3.33 1.98 3.66 3.96 4 6 C2.68 6 1.36 6 0 6 C0 4.02 0 2.04 0 0 Z " fill="#A46E06" transform="translate(431,92)"/>
<path d="M0 0 C3.36720387 1.39332574 4.9859524 2.9789286 7 6 C6.67 6.66 6.34 7.32 6 8 C3.69 6.02 1.38 4.04 -1 2 C-0.67 1.34 -0.34 0.68 0 0 Z " fill="#B6831C" transform="translate(404,74)"/>
<path d="M0 0 C0.95465783 2.16967689 1.14401212 3.56328793 0.3984375 5.82421875 C-0.35870385 7.5684743 -1.17609198 9.28627131 -2 11 C-2.66 11 -3.32 11 -4 11 C-3.34 8.03 -2.68 5.06 -2 2 C-1.34 2 -0.68 2 0 2 C0 1.34 0 0.68 0 0 Z " fill="#FBD150" transform="translate(446,72)"/>
<path d="M0 0 C5.875 3.625 5.875 3.625 7 7 C4.625 6.3125 4.625 6.3125 2 5 C0.6875 2.375 0.6875 2.375 0 0 Z " fill="#7C4D03" transform="translate(397,68)"/>
<path d="M0 0 C0.99 0.33 1.98 0.66 3 1 C3 3.64 3 6.28 3 9 C2.67 9 2.34 9 2 9 C1.67 7.35 1.34 5.7 1 4 C0.34 4.99 -0.32 5.98 -1 7 C-0.67 4.69 -0.34 2.38 0 0 Z " fill="#FCDF66" transform="translate(450,56)"/>
<path d="M0 0 C2.64 0 5.28 0 8 0 C7.34 0.66 6.68 1.32 6 2 C5.67 2.99 5.34 3.98 5 5 C5 4.34 5 3.68 5 3 C3.35 3 1.7 3 0 3 C0 2.01 0 1.02 0 0 Z " fill="#A26703" transform="translate(460,53)"/>
<path d="M0 0 C2.31 0 4.62 0 7 0 C7.33 0.99 7.66 1.98 8 3 C5.36 2.67 2.72 2.34 0 2 C0 1.34 0 0.68 0 0 Z " fill="#F9C844" transform="translate(445,47)"/>
<path d="M0 0 C2.6855594 2.6855594 3.06049974 5.37621328 4 9 C2.0625 8.3125 2.0625 8.3125 0 7 C-0.93580311 4.12060581 -1.37245106 2.74490212 0 0 Z " fill="#915F00" transform="translate(423,75)"/>
<path d="M0 0 C2.875 0.3125 2.875 0.3125 6 1 C6.66 1.99 7.32 2.98 8 4 C5.125 3.6875 5.125 3.6875 2 3 C1.34 2.01 0.68 1.02 0 0 Z " fill="#E7D15F" transform="translate(396,73)"/>
<path d="M0 0 C-0.33 1.32 -0.66 2.64 -1 4 C-1.99 4 -2.98 4 -4 4 C-4.33 4.66 -4.66 5.32 -5 6 C-5 4.35 -5 2.7 -5 1 C-2 0 -2 0 0 0 Z " fill="#D19312" transform="translate(437,86)"/>
<path d="M0 0 C-0.8125 1.9375 -0.8125 1.9375 -2 4 C-2.99 4.33 -3.98 4.66 -5 5 C-5.66 4.34 -6.32 3.68 -7 3 C-3.375 0 -3.375 0 0 0 Z " fill="#E5C251" transform="translate(470,70)"/>
<path d="M0 0 C1.258125 -0.04125 2.51625 -0.0825 3.8125 -0.125 C4.52019531 -0.14820313 5.22789062 -0.17140625 5.95703125 -0.1953125 C8 0 8 0 11 2 C4.6 3.35384615 4.6 3.35384615 1.5625 1.5625 C1.046875 1.046875 0.53125 0.53125 0 0 Z " fill="#B07E1B" transform="translate(414,46)"/>
</svg>
